# xmcd
#
# Track frame offsets: 
#        150
#        28147
#        44981
#        60900
#        86340
#        106198
#        125582
#        140762
#        163155
#        185713
#
# Disc length: 2928 seconds
#
# Revision: 0
# Processed by: cddbd v1.4PL0 Copyright (c) Steve Scherf et al.
# Submitted via: ExactAudioCopy v0.90b4
#
DISCID=900b6e0a
DTITLE=Dan Hoeflinger - Stand Up And Be Counted
DYEAR=2000
DGENRE=Blues
TTITLE0=Leah
TTITLE1=Still Got A Long Way
TTITLE2=Children
TTITLE3=Call Me
TTITLE4=The Father Is Waiting
TTITLE5=Rev. Blues
TTITLE6=Can't Get Up
TTITLE7=Stand Up and Be Counted
TTITLE8=Your Spirit Follows Me
TTITLE9=Specialk
EXTD=
EXTT0=
EXTT1=
EXTT2=
EXTT3=
EXTT4=
EXTT5=
EXTT6=
EXTT7=
EXTT8=
EXTT9=
PLAYORDER=
